<?xml version="1.0" encoding="UTF-8"?>
<svg id="Camada_1" data-name="Camada 1" xmlns="http://www.w3.org/2000/svg" viewBox="0 0 484.83 314">
  <defs>
    <style>
      .cls-1 {
        fill: #fbb03b;
      }

      .cls-2 {
        fill: #ff0;
      }
    </style>
  </defs>
  <g>
    <polygon class="cls-1" points="99.37 133.5 73.96 89.5 99.37 45.5 150.17 45.5 175.58 89.5 150.17 133.5 99.37 133.5"/>
    <path class="cls-2" d="m149.89,46l25.11,43.5-25.11,43.5h-50.23l-25.11-43.5,25.11-43.5h50.23m.58-1h-51.38l-25.69,44.5,25.69,44.5h51.38l25.69-44.5-25.69-44.5h0Z"/>
  </g>
  <g>
    <polygon class="cls-1" points="176.82 88.5 151.42 44.5 176.82 .5 227.63 .5 253.03 44.5 227.63 88.5 176.82 88.5"/>
    <path class="cls-2" d="m227.34,1l25.11,43.5-25.11,43.5h-50.23l-25.11-43.5L177.11,1h50.23m.58-1h-51.38l-25.69,44.5,25.69,44.5h51.38l25.69-44.5L227.91,0h0Z"/>
  </g>
  <g>
    <polygon class="cls-1" points="176.82 178.5 151.42 134.5 176.82 90.5 227.63 90.5 253.03 134.5 227.63 178.5 176.82 178.5"/>
    <path class="cls-2" d="m227.34,91l25.11,43.5-25.11,43.5h-50.23l-25.11-43.5,25.11-43.5h50.23m.58-1h-51.38l-25.69,44.5,25.69,44.5h51.38l25.69-44.5-25.69-44.5h0Z"/>
  </g>
  <g>
    <polygon class="cls-1" points="253.59 134.52 228.19 90.52 253.59 46.52 304.4 46.52 329.8 90.52 304.4 134.52 253.59 134.52"/>
    <path class="cls-2" d="m304.11,47.02l25.11,43.5-25.11,43.5h-50.23l-25.11-43.5,25.11-43.5h50.23m.58-1h-51.38l-25.69,44.5,25.69,44.5h51.38l25.69-44.5-25.69-44.5h0Z"/>
  </g>
  <g>
    <polygon class="cls-1" points="332.04 90.02 306.64 46.02 332.04 2.02 382.85 2.02 408.25 46.02 382.85 90.02 332.04 90.02"/>
    <path class="cls-2" d="m382.56,2.52l25.11,43.5-25.11,43.5h-50.23l-25.11-43.5,25.11-43.5h50.23m.58-1h-51.38l-25.69,44.5,25.69,44.5h51.38l25.69-44.5L383.14,1.52h0Z"/>
  </g>
  <g>
    <polygon class="cls-1" points="332.04 179.02 306.64 135.02 332.04 91.02 382.85 91.02 408.25 135.02 382.85 179.02 332.04 179.02"/>
    <path class="cls-2" d="m382.56,91.52l25.11,43.5-25.11,43.5h-50.23l-25.11-43.5,25.11-43.5h50.23m.58-1h-51.38l-25.69,44.5,25.69,44.5h51.38l25.69-44.5-25.69-44.5h0Z"/>
  </g>
  <g>
    <polygon class="cls-1" points="25.98 268.76 .58 224.76 25.98 180.76 76.79 180.76 102.19 224.76 76.79 268.76 25.98 268.76"/>
    <path class="cls-2" d="m76.5,181.26l25.11,43.5-25.11,43.5H26.27L1.15,224.76l25.11-43.5h50.23m.58-1H25.69L0,224.76l25.69,44.5h51.38l25.69-44.5-25.69-44.5h0Z"/>
  </g>
  <g>
    <polygon class="cls-1" points="99.43 223.5 74.03 179.5 99.43 135.5 150.24 135.5 175.64 179.5 150.24 223.5 99.43 223.5"/>
    <path class="cls-2" d="m149.95,136l25.11,43.5-25.11,43.5h-50.23l-25.11-43.5,25.11-43.5h50.23m.58-1h-51.38l-25.69,44.5,25.69,44.5h51.38l25.69-44.5-25.69-44.5h0Z"/>
  </g>
  <g>
    <polygon class="cls-1" points="99.43 313.5 74.03 269.5 99.43 225.5 150.24 225.5 175.64 269.5 150.24 313.5 99.43 313.5"/>
    <path class="cls-2" d="m149.95,226l25.11,43.5-25.11,43.5h-50.23l-25.11-43.5,25.11-43.5h50.23m.58-1h-51.38l-25.69,44.5,25.69,44.5h51.38l25.69-44.5-25.69-44.5h0Z"/>
  </g>
  <g>
    <polygon class="cls-1" points="177.21 268.5 151.8 224.5 177.21 180.5 228.01 180.5 253.42 224.5 228.01 268.5 177.21 268.5"/>
    <path class="cls-2" d="m227.72,181l25.11,43.5-25.11,43.5h-50.23l-25.11-43.5,25.11-43.5h50.23m.58-1h-51.38l-25.69,44.5,25.69,44.5h51.38l25.69-44.5-25.69-44.5h0Z"/>
  </g>
  <g>
    <polygon class="cls-1" points="253.66 223.79 228.25 179.79 253.66 135.79 304.46 135.79 329.87 179.79 304.46 223.79 253.66 223.79"/>
    <path class="cls-2" d="m304.18,136.29l25.11,43.5-25.11,43.5h-50.23l-25.11-43.5,25.11-43.5h50.23m.58-1h-51.38l-25.69,44.5,25.69,44.5h51.38l25.69-44.5-25.69-44.5h0Z"/>
  </g>
  <g>
    <polygon class="cls-1" points="253.66 312.79 228.25 268.79 253.66 224.79 304.46 224.79 329.87 268.79 304.46 312.79 253.66 312.79"/>
    <path class="cls-2" d="m304.18,225.29l25.11,43.5-25.11,43.5h-50.23l-25.11-43.5,25.11-43.5h50.23m.58-1h-51.38l-25.69,44.5,25.69,44.5h51.38l25.69-44.5-25.69-44.5h0Z"/>
  </g>
  <g>
    <polygon class="cls-1" points="329.59 268.52 304.19 224.52 329.59 180.52 380.4 180.52 405.8 224.52 380.4 268.52 329.59 268.52"/>
    <path class="cls-2" d="m380.11,181.02l25.11,43.5-25.11,43.5h-50.23l-25.11-43.5,25.11-43.5h50.23m.58-1h-51.38l-25.69,44.5,25.69,44.5h51.38l25.69-44.5-25.69-44.5h0Z"/>
  </g>
  <g>
    <polygon class="cls-1" points="408.04 224.02 382.64 180.02 408.04 136.02 458.85 136.02 484.25 180.02 458.85 224.02 408.04 224.02"/>
    <path class="cls-2" d="m458.56,136.52l25.11,43.5-25.11,43.5h-50.23l-25.11-43.5,25.11-43.5h50.23m.58-1h-51.38l-25.69,44.5,25.69,44.5h51.38l25.69-44.5-25.69-44.5h0Z"/>
  </g>
  <g>
    <polygon class="cls-1" points="408.04 313.02 382.64 269.02 408.04 225.02 458.85 225.02 484.25 269.02 458.85 313.02 408.04 313.02"/>
    <path class="cls-2" d="m458.56,225.52l25.11,43.5-25.11,43.5h-50.23l-25.11-43.5,25.11-43.5h50.23m.58-1h-51.38l-25.69,44.5,25.69,44.5h51.38l25.69-44.5-25.69-44.5h0Z"/>
  </g>
</svg>