<?xml version="1.0" encoding="UTF-8"?>
<svg id="Camada_1" data-name="Camada 1" xmlns="http://www.w3.org/2000/svg" viewBox="0 0 251.77 313">
  <defs>
    <style>
      .cls-1 {
        fill: #fbb03b;
      }

      .cls-2 {
        fill: #ff0;
      }
    </style>
  </defs>
  <g>
    <polygon class="cls-1" points="174.43 89.5 149.03 45.5 174.43 1.5 225.24 1.5 250.64 45.5 225.24 89.5 174.43 89.5"/>
    <path class="cls-2" d="m224.95,2l25.11,43.5-25.11,43.5h-50.23l-25.11-43.5L174.72,2h50.23m.58-1h-51.38l-25.69,44.5,25.69,44.5h51.38l25.69-44.5L225.53,1h0Z"/>
  </g>
  <g>
    <polygon class="cls-1" points="174.82 267.76 149.42 223.76 174.82 179.76 225.63 179.76 251.03 223.76 225.63 267.76 174.82 267.76"/>
    <path class="cls-2" d="m225.34,180.26l25.11,43.5-25.11,43.5h-50.23l-25.11-43.5,25.11-43.5h50.23m.58-1h-51.38l-25.69,44.5,25.69,44.5h51.38l25.69-44.5-25.69-44.5h0Z"/>
  </g>
  <g>
    <polygon class="cls-1" points="101.37 312.5 75.96 268.5 101.37 224.5 152.18 224.5 177.58 268.5 152.18 312.5 101.37 312.5"/>
    <path class="cls-2" d="m151.89,225l25.11,43.5-25.11,43.5h-50.23l-25.11-43.5,25.11-43.5h50.23m.58-1h-51.38l-25.69,44.5,25.69,44.5h51.38l25.69-44.5-25.69-44.5h0Z"/>
  </g>
  <g>
    <polygon class="cls-1" points="174.98 178.5 149.58 134.5 174.98 90.5 225.79 90.5 251.19 134.5 225.79 178.5 174.98 178.5"/>
    <path class="cls-2" d="m225.5,91l25.11,43.5-25.11,43.5h-50.23l-25.11-43.5,25.11-43.5h50.23m.58-1h-51.38l-25.69,44.5,25.69,44.5h51.38l25.69-44.5-25.69-44.5h0Z"/>
  </g>
  <g>
    <polygon class="cls-1" points="100.98 133.5 75.58 89.5 100.98 45.5 151.79 45.5 177.19 89.5 151.79 133.5 100.98 133.5"/>
    <path class="cls-2" d="m151.5,46l25.11,43.5-25.11,43.5h-50.23l-25.11-43.5,25.11-43.5h50.23m.58-1h-51.38l-25.69,44.5,25.69,44.5h51.38l25.69-44.5-25.69-44.5h0Z"/>
  </g>
  <g>
    <polygon class="cls-1" points="25.98 88.5 .58 44.5 25.98 .5 76.79 .5 102.19 44.5 76.79 88.5 25.98 88.5"/>
    <path class="cls-2" d="m76.5,1l25.11,43.5-25.11,43.5H26.27L1.15,44.5,26.27,1h50.23m.58-1H25.69L0,44.5l25.69,44.5h51.38l25.69-44.5L77.08,0h0Z"/>
  </g>
</svg>