<?xml version="1.0" encoding="UTF-8"?>
<svg id="Camada_1" data-name="Camada 1" xmlns="http://www.w3.org/2000/svg" viewBox="0 0 484.77 357">
  <defs>
    <style>
      .cls-1 {
        fill: #fbb03b;
      }

      .cls-2 {
        fill: #ff0;
      }
    </style>
  </defs>
  <g>
    <polygon class="cls-1" points="99.53 176.5 74.13 132.5 99.53 88.5 150.34 88.5 175.74 132.5 150.34 176.5 99.53 176.5"/>
    <path class="cls-2" d="m150.05,89l25.11,43.5-25.11,43.5h-50.23l-25.11-43.5,25.11-43.5h50.23m.58-1h-51.38l-25.69,44.5,25.69,44.5h51.38l25.69-44.5-25.69-44.5h0Z"/>
  </g>
  <g>
    <polygon class="cls-1" points="176.98 131.5 151.58 87.5 176.98 43.5 227.79 43.5 253.19 87.5 227.79 131.5 176.98 131.5"/>
    <path class="cls-2" d="m227.5,44l25.11,43.5-25.11,43.5h-50.23l-25.11-43.5,25.11-43.5h50.23m.58-1h-51.38l-25.69,44.5,25.69,44.5h51.38l25.69-44.5-25.69-44.5h0Z"/>
  </g>
  <g>
    <polygon class="cls-1" points="253.76 177.52 228.35 133.52 253.76 89.52 304.56 89.52 329.97 133.52 304.56 177.52 253.76 177.52"/>
    <path class="cls-2" d="m304.27,90.02l25.11,43.5-25.11,43.5h-50.23l-25.11-43.5,25.11-43.5h50.23m.58-1h-51.38l-25.69,44.5,25.69,44.5h51.38l25.69-44.5-25.69-44.5h0Z"/>
  </g>
  <g>
    <polygon class="cls-1" points="332.21 133.02 306.8 89.02 332.21 45.02 383.01 45.02 408.42 89.02 383.01 133.02 332.21 133.02"/>
    <path class="cls-2" d="m382.72,45.52l25.11,43.5-25.11,43.5h-50.23l-25.11-43.5,25.11-43.5h50.23m.58-1h-51.38l-25.69,44.5,25.69,44.5h51.38l25.69-44.5-25.69-44.5h0Z"/>
  </g>
  <g>
    <polygon class="cls-1" points="26.14 311.76 .74 267.76 26.14 223.76 76.95 223.76 102.35 267.76 76.95 311.76 26.14 311.76"/>
    <path class="cls-2" d="m76.66,224.26l25.11,43.5-25.11,43.5H26.43L1.32,267.76l25.11-43.5h50.23m.58-1H25.85L.16,267.76l25.69,44.5h51.38l25.69-44.5-25.69-44.5h0Z"/>
  </g>
  <g>
    <polygon class="cls-1" points="99.59 266.5 74.19 222.5 99.59 178.5 150.4 178.5 175.8 222.5 150.4 266.5 99.59 266.5"/>
    <path class="cls-2" d="m150.11,179l25.11,43.5-25.11,43.5h-50.23l-25.11-43.5,25.11-43.5h50.23m.58-1h-51.38l-25.69,44.5,25.69,44.5h51.38l25.69-44.5-25.69-44.5h0Z"/>
  </g>
  <g>
    <polygon class="cls-1" points="99.59 356.5 74.19 312.5 99.59 268.5 150.4 268.5 175.8 312.5 150.4 356.5 99.59 356.5"/>
    <path class="cls-2" d="m150.11,269l25.11,43.5-25.11,43.5h-50.23l-25.11-43.5,25.11-43.5h50.23m.58-1h-51.38l-25.69,44.5,25.69,44.5h51.38l25.69-44.5-25.69-44.5h0Z"/>
  </g>
  <g>
    <polygon class="cls-1" points="253.98 88.5 228.58 44.5 253.98 .5 304.79 .5 330.19 44.5 304.79 88.5 253.98 88.5"/>
    <path class="cls-2" d="m304.5,1l25.11,43.5-25.11,43.5h-50.23l-25.11-43.5L254.27,1h50.23m.58-1h-51.38l-25.69,44.5,25.69,44.5h51.38l25.69-44.5L305.08,0h0Z"/>
  </g>
  <g>
    <polygon class="cls-1" points="407.98 175.5 382.58 131.5 407.98 87.5 458.79 87.5 484.19 131.5 458.79 175.5 407.98 175.5"/>
    <path class="cls-2" d="m458.5,88l25.11,43.5-25.11,43.5h-50.23l-25.11-43.5,25.11-43.5h50.23m.58-1h-51.38l-25.69,44.5,25.69,44.5h51.38l25.69-44.5-25.69-44.5h0Z"/>
  </g>
  <g>
    <polygon class="cls-1" points="25.98 222.5 .58 178.5 25.98 134.5 76.79 134.5 102.19 178.5 76.79 222.5 25.98 222.5"/>
    <path class="cls-2" d="m76.5,135l25.11,43.5-25.11,43.5H26.27L1.15,178.5l25.11-43.5h50.23m.58-1H25.69L0,178.5l25.69,44.5h51.38l25.69-44.5-25.69-44.5h0Z"/>
  </g>
</svg>