<?xml version="1.0" encoding="UTF-8"?>
<svg id="Camada_1" data-name="Camada 1" xmlns="http://www.w3.org/2000/svg" viewBox="0 0 398.77 403">
  <defs>
    <style>
      .cls-1 {
        fill: #fbb03b;
      }

      .cls-2 {
        fill: #ff0;
      }
    </style>
  </defs>
  <g>
    <polygon class="cls-1" points="99.53 178.5 74.13 134.5 99.53 90.5 150.34 90.5 175.74 134.5 150.34 178.5 99.53 178.5"/>
    <path class="cls-2" d="m150.05,91l25.11,43.5-25.11,43.5h-50.23l-25.11-43.5,25.11-43.5h50.23m.58-1h-51.38l-25.69,44.5,25.69,44.5h51.38l25.69-44.5-25.69-44.5h0Z"/>
  </g>
  <g>
    <polygon class="cls-1" points="26.14 313.76 .74 269.76 26.14 225.76 76.95 225.76 102.35 269.76 76.95 313.76 26.14 313.76"/>
    <path class="cls-2" d="m76.66,226.26l25.11,43.5-25.11,43.5H26.43L1.32,269.76l25.11-43.5h50.23m.58-1H25.85L.16,269.76l25.69,44.5h51.38l25.69-44.5-25.69-44.5h0Z"/>
  </g>
  <g>
    <polygon class="cls-1" points="99.59 268.5 74.19 224.5 99.59 180.5 150.4 180.5 175.8 224.5 150.4 268.5 99.59 268.5"/>
    <path class="cls-2" d="m150.11,181l25.11,43.5-25.11,43.5h-50.23l-25.11-43.5,25.11-43.5h50.23m.58-1h-51.38l-25.69,44.5,25.69,44.5h51.38l25.69-44.5-25.69-44.5h0Z"/>
  </g>
  <g>
    <polygon class="cls-1" points="99.59 358.5 74.19 314.5 99.59 270.5 150.4 270.5 175.8 314.5 150.4 358.5 99.59 358.5"/>
    <path class="cls-2" d="m150.11,271l25.11,43.5-25.11,43.5h-50.23l-25.11-43.5,25.11-43.5h50.23m.58-1h-51.38l-25.69,44.5,25.69,44.5h51.38l25.69-44.5-25.69-44.5h0Z"/>
  </g>
  <g>
    <polygon class="cls-1" points="25.98 224.5 .58 180.5 25.98 136.5 76.79 136.5 102.19 180.5 76.79 224.5 25.98 224.5"/>
    <path class="cls-2" d="m76.5,137l25.11,43.5-25.11,43.5H26.27L1.15,180.5l25.11-43.5h50.23m.58-1H25.69L0,180.5l25.69,44.5h51.38l25.69-44.5-25.69-44.5h0Z"/>
  </g>
  <g>
    <polygon class="cls-1" points="174.98 133.5 149.58 89.5 174.98 45.5 225.79 45.5 251.19 89.5 225.79 133.5 174.98 133.5"/>
    <path class="cls-2" d="m225.5,46l25.11,43.5-25.11,43.5h-50.23l-25.11-43.5,25.11-43.5h50.23m.58-1h-51.38l-25.69,44.5,25.69,44.5h51.38l25.69-44.5-25.69-44.5h0Z"/>
  </g>
  <g>
    <polygon class="cls-1" points="249.98 88.5 224.58 44.5 249.98 .5 300.79 .5 326.19 44.5 300.79 88.5 249.98 88.5"/>
    <path class="cls-2" d="m300.5,1l25.11,43.5-25.11,43.5h-50.23l-25.11-43.5L250.27,1h50.23m.58-1h-51.38l-25.69,44.5,25.69,44.5h51.38l25.69-44.5L301.08,0h0Z"/>
  </g>
  <g>
    <polygon class="cls-1" points="174.98 402.5 149.58 358.5 174.98 314.5 225.79 314.5 251.19 358.5 225.79 402.5 174.98 402.5"/>
    <path class="cls-2" d="m225.5,315l25.11,43.5-25.11,43.5h-50.23l-25.11-43.5,25.11-43.5h50.23m.58-1h-51.38l-25.69,44.5,25.69,44.5h51.38l25.69-44.5-25.69-44.5h0Z"/>
  </g>
  <g>
    <polygon class="cls-1" points="249.98 358.5 224.58 314.5 249.98 270.5 300.79 270.5 326.19 314.5 300.79 358.5 249.98 358.5"/>
    <path class="cls-2" d="m300.5,271l25.11,43.5-25.11,43.5h-50.23l-25.11-43.5,25.11-43.5h50.23m.58-1h-51.38l-25.69,44.5,25.69,44.5h51.38l25.69-44.5-25.69-44.5h0Z"/>
  </g>
  <g>
    <polygon class="cls-1" points="321.98 133.5 296.58 89.5 321.98 45.5 372.79 45.5 398.19 89.5 372.79 133.5 321.98 133.5"/>
    <path class="cls-2" d="m372.5,46l25.11,43.5-25.11,43.5h-50.23l-25.11-43.5,25.11-43.5h50.23m.58-1h-51.38l-25.69,44.5,25.69,44.5h51.38l25.69-44.5-25.69-44.5h0Z"/>
  </g>
</svg>